<svg xmlns="http://www.w3.org/2000/svg" viewBox="0 0 227.74 203.92"><defs><style>.cls-1{fill:none;stroke:#050505;stroke-miterlimit:10;stroke-width:6.6px;}</style></defs><title>Logo_Brandname</title><g id="Layer_2" data-name="Layer 2"><g id="Layer_1-2" data-name="Layer 1"><path d="M164.32,57.19l42.63,85.37H121.58Zm0,29.12-21.55,43.21h43.09Z"/><path d="M117.8,104.25a9.16,9.16,0,1,1-18.32,0,9.19,9.19,0,0,1,2.66-6.6,9,9,0,0,1,13,0A9.2,9.2,0,0,1,117.8,104.25Z"/><path d="M43,118.47l-2.34,3.12v20.26H27V60.24H40.7V98.32L68.86,60.24h17L58.18,98Zm17.14-17.7,30.28,41.08h-17l-21.82-29.5Z"/><rect class="cls-1" x="3.3" y="3.3" width="221.14" height="197.32"/></g></g></svg>